<svg width="864" height="199" viewBox="0 0 864 199" fill="none" xmlns="http://www.w3.org/2000/svg">
<path d="M41.2731 13.7836C42.8752 13.7729 42.8752 13.7729 44.5096 13.762C46.2598 13.758 46.2599 13.758 48.0454 13.7539C49.8949 13.7441 49.8949 13.7441 51.7817 13.7341C55.8675 13.7144 59.9532 13.7028 64.0391 13.6929C65.4492 13.6889 66.8593 13.6848 68.2694 13.6806C74.8977 13.6617 81.526 13.6475 88.1543 13.6392C95.7872 13.6295 103.42 13.6033 111.053 13.5631C116.964 13.533 122.874 13.5183 128.786 13.5151C132.31 13.5127 135.835 13.5039 139.36 13.4788C143.299 13.4511 147.239 13.4555 151.178 13.4624C152.91 13.4433 152.91 13.4433 154.677 13.4238C163.08 13.4773 169.523 15.2778 176.75 19.5269C182.212 25.2636 186.064 31.9389 186.177 39.9185C186.196 41.1153 186.196 41.1153 186.216 42.3362C186.223 43.1923 186.231 44.0484 186.238 44.9305C186.246 45.8241 186.254 46.7177 186.263 47.6384C186.277 49.5319 186.287 51.4254 186.295 53.319C186.307 55.2371 186.327 57.1553 186.357 59.0733C186.617 75.9024 184.919 89.3809 172.75 102.05C170 104.475 170 104.475 168 104.475C168.009 105.372 168.018 106.268 168.027 107.192C168.107 115.654 168.168 124.115 168.207 132.577C168.228 136.927 168.256 141.277 168.302 145.627C168.345 149.827 168.369 154.026 168.38 158.226C168.387 159.827 168.401 161.427 168.423 163.027C168.452 165.273 168.456 167.518 168.454 169.765C168.463 171.042 168.472 172.319 168.481 173.635C167.907 177.78 166.679 179.884 164 183.08C160.943 184.995 158.585 185.322 155.004 185.336C153.494 185.349 153.494 185.349 151.954 185.362C150.855 185.361 149.757 185.36 148.625 185.359C146.883 185.369 146.883 185.369 145.106 185.379C141.261 185.398 137.416 185.402 133.57 185.404C131.575 185.409 129.579 185.414 127.584 185.419C121.309 185.435 115.033 185.44 108.758 185.439C102.292 185.438 95.8254 185.459 89.3588 185.49C83.8011 185.516 78.2435 185.527 72.6858 185.525C69.3689 185.525 66.0524 185.532 62.7356 185.552C59.0346 185.571 55.3344 185.565 51.6333 185.553C50.5391 185.565 49.4448 185.576 48.3174 185.587C42.2638 185.537 38.5254 185.258 34 181.09C31.4093 177.675 31.7585 174.159 31.773 169.99C31.7727 169.281 31.7724 168.572 31.7721 167.842C31.7735 165.505 31.789 163.169 31.8047 160.832C31.8084 159.21 31.8113 157.587 31.8133 155.964C31.8209 151.698 31.8405 147.432 31.8627 143.166C31.8832 138.811 31.8923 134.455 31.9023 130.1C31.9238 121.558 31.9579 113.017 32 104.475C31.3805 104.182 30.7611 103.89 30.1228 103.588C21.7833 99.2538 17.8515 90.0044 15 81.59C14.2064 78.8278 13.8632 76.3503 13.823 73.4799C13.8102 72.6756 13.7973 71.8714 13.7841 71.0427C13.773 69.7492 13.773 69.7492 13.7617 68.4296C13.7536 67.5312 13.7456 66.6329 13.7373 65.7073C13.7234 63.8055 13.7127 61.9036 13.7048 60.0017C13.6933 58.0699 13.6729 56.1382 13.6433 54.2066C13.3278 33.6185 13.3278 33.6185 18 25.87C18.5363 24.967 19.0725 24.0641 19.625 23.1337C25.8954 17.2231 32.6575 13.8231 41.2731 13.7836ZM27.125 28.6684C26.2936 29.6323 26.2936 29.6323 25.4453 30.6157C22.1821 35.6264 21.6829 40.7113 21.6641 46.5512C21.6574 47.2851 21.6508 48.0189 21.6439 48.775C21.6338 50.3245 21.6291 51.8741 21.6294 53.4237C21.6251 55.7517 21.5888 58.0778 21.5508 60.4054C21.4483 73.7999 23.3117 85.4911 33 95.52C36.0596 98.6011 36.0596 98.6011 40 99.5C39.9933 100.428 39.9867 101.357 39.9798 102.313C39.919 111.054 39.8741 119.794 39.8446 128.535C39.8289 133.029 39.8076 137.523 39.7737 142.017C39.7411 146.352 39.7232 150.687 39.7154 155.023C39.7098 156.678 39.699 158.334 39.6828 159.989C39.6611 162.305 39.658 164.62 39.6594 166.936C39.6486 167.623 39.6379 168.31 39.6267 169.018C39.6276 172.641 39.6276 172.641 41.2308 175.793C43.5147 177.493 44.831 177.485 47.6685 177.489C49.107 177.502 49.107 177.502 50.5745 177.515C51.625 177.509 52.6755 177.502 53.7578 177.496C54.8653 177.501 55.9729 177.507 57.114 177.512C60.7844 177.525 64.4545 177.517 68.125 177.506C70.6694 177.508 73.2139 177.511 75.7583 177.515C81.0948 177.52 86.4311 177.513 91.7676 177.499C97.9383 177.483 104.109 177.488 110.279 177.505C116.214 177.52 122.149 177.518 128.083 177.509C130.61 177.507 133.136 177.51 135.662 177.517C139.189 177.524 142.715 177.513 146.242 177.496C147.293 177.502 148.343 177.508 149.425 177.515C150.384 177.506 151.343 177.498 152.332 177.489C153.166 177.488 154 177.487 154.859 177.486C157.524 177.018 158.411 176.279 160 174.125C160.28 171.644 160.379 169.415 160.341 166.936C160.341 166.207 160.341 165.479 160.342 164.729C160.34 162.322 160.316 159.916 160.293 157.509C160.287 155.84 160.283 154.172 160.28 152.503C160.269 148.111 160.239 143.719 160.206 139.327C160.175 134.845 160.162 130.363 160.146 125.881C160.114 117.087 160.063 108.294 160 99.5C160.786 99.2058 161.572 98.9116 162.383 98.6085C168.52 96.0327 172.319 89.5911 175.176 83.8288C177.436 77.6892 178.309 71.9977 178.301 65.5145C178.307 64.4003 178.307 64.4003 178.314 63.2635C178.319 61.705 178.32 60.1464 178.316 58.5879C178.312 56.2232 178.336 53.8597 178.361 51.4951C178.364 49.9702 178.364 48.4454 178.363 46.9205C178.377 45.8769 178.377 45.8769 178.391 44.8123C178.336 38.8347 177.057 33.3498 173.168 28.614C172.514 28.0779 171.861 27.5418 171.188 26.9894C170.219 26.1621 170.219 26.1621 169.23 25.3181C162.944 21.2651 156.474 21.6006 149.247 21.6167C148.069 21.6116 146.891 21.6065 145.677 21.6013C142.458 21.5899 139.239 21.5874 136.02 21.5899C133.326 21.591 130.632 21.5861 127.939 21.5814C121.58 21.5703 115.221 21.5699 108.863 21.5759C102.318 21.5819 95.7731 21.5697 89.2281 21.5485C83.5956 21.5309 77.9632 21.525 72.3307 21.5282C68.9725 21.53 65.6145 21.5274 62.2564 21.5136C58.5081 21.5013 54.7604 21.508 51.0122 21.5195C49.9096 21.5119 48.807 21.5043 47.671 21.4965C39.7909 21.55 32.4699 22.2179 27.125 28.6684Z" fill="black"/>
<path d="M66 113.43C89.76 113.43 113.52 113.43 138 113.43C138 126.547 137.194 138.192 128 148.255C125.181 150.663 122.285 152.508 119 154.225C118.358 154.564 117.716 154.902 117.055 155.251C107.945 159.09 95.0737 158.639 85.8125 155.593C76.0726 151.296 71.9737 145.047 68 135.32C65.4065 127.986 66 121.416 66 113.43ZM93 144.275C91.5953 146.316 91.5953 146.316 91 148.255C97.3534 149.941 104.647 149.941 111 148.255C109.919 145.136 109.022 144.288 106.125 142.534C100.812 140.419 97.7245 141.414 93 144.275Z" fill="black"/>
<path d="M138 74.9981C141 75.62 141 75.62 142.664 77.7111C144.278 81.1949 144.4 83.734 144.375 87.56C144.383 88.7503 144.39 89.9405 144.398 91.1669C143.972 94.7639 143.249 96.6735 141 99.5C138 100.122 138 100.122 135 99.5C131.899 95.6033 131.593 92.4466 131.625 87.56C131.617 86.3697 131.61 85.1795 131.602 83.9531C132.164 79.2093 133.053 76.0235 138 74.9981Z" fill="black"/>
<path d="M62 74.9981C65 75.62 65 75.62 66.6641 77.7111C68.2779 81.1949 68.3999 83.734 68.375 87.56C68.3827 88.7503 68.3905 89.9405 68.3984 91.1669C67.9717 94.7639 67.2493 96.6735 65 99.5C62 100.122 62 100.122 59 99.5C55.899 95.6033 55.5932 92.4466 55.625 87.56C55.6173 86.3697 55.6095 85.1795 55.6016 83.9531C56.1644 79.2093 57.0535 76.0235 62 74.9981Z" fill="black"/>
<path d="M153.562 29.4769C159.176 29.5409 162.847 31.0891 167 34.825C170.629 39.6775 170.575 44.9022 170 50.745C169 51.74 169 51.74 166 51.8644C163 51.74 163 51.74 162 50.745C161.707 49.2981 161.441 47.8461 161.188 46.3919C160.556 43.5226 160.235 42.0673 158.312 39.8C155.257 38.4855 152.293 38.1809 149 37.81C148 36.815 148 36.815 147.875 33.83C148.067 29.2487 149.327 29.6442 153.562 29.4769Z" fill="black"/>
<path d="M51 29.85C52 30.845 52 30.845 52.125 33.83C52 36.815 52 36.815 51 37.81C49.5459 38.1011 48.0865 38.3667 46.625 38.6184C43.7414 39.2469 42.2787 39.566 40 41.4791C38.6789 44.5188 38.3728 47.4688 38 50.745C37 51.74 37 51.74 34 51.8644C31 51.74 31 51.74 30 50.745C29.1372 44.4535 29.7499 39.6382 33.5273 34.4558C38.3029 29.1999 44.329 29.2 51 29.85Z" fill="black"/>
<path d="M190 91.54C190.949 94.6231 191.134 96.1536 189.996 99.2202C184.334 109.273 184.334 109.273 179 112.435C174.814 112.25 174.814 112.25 173 110.445C172.648 107.435 172.65 105.966 174.426 103.453C175.048 102.826 175.671 102.198 176.312 101.552C179.283 98.4059 181.166 95.4787 183 91.54C185.667 90.2134 187.167 90.8723 190 91.54Z" fill="black"/>
<path d="M14.3125 90.4828C17.9884 91.9288 18.8436 94.1043 20.7266 97.4517C22.0503 99.7809 22.0503 99.7809 24.875 102.174C25.5763 102.933 26.2775 103.693 27 104.475C26.8095 108.645 26.8095 108.645 25 110.445C21.8676 110.836 20.4612 110.776 17.8672 108.914C10.6265 101.37 10.6265 101.37 9 96.515C9.1875 93.7166 9.1875 93.7166 10 91.54C12 90.545 12 90.545 14.3125 90.4828Z" fill="black"/>
<path d="M21 111.44C23.5 111.129 23.5 111.129 26 111.44C28.3922 113.82 28.6759 115.099 29 118.405C28.01 119.883 28.01 119.883 27 121.39C23.875 121.577 23.875 121.577 21 121.39C19.875 118.094 19.875 118.094 19 114.425C19.66 113.44 20.32 112.455 21 111.44Z" fill="black"/>
<path d="M176.625 113.057C179 113.43 179 113.43 180 114.425C180.237 120.918 180.237 120.918 179 123.38C177.02 123.38 175.04 123.38 173 123.38C171.812 121.203 171.812 121.203 171 118.405C172.308 114.96 172.86 113.592 176.625 113.057Z" fill="black"/>
<path d="M314.576 89.7773L311.695 91.6816C309.938 89.0775 307.643 87.0267 304.811 85.5293C302.011 83.9993 298.967 83.2344 295.68 83.2344C290.341 83.2344 285.784 85.1224 282.008 88.8984C278.232 92.6745 276.344 97.2318 276.344 102.57C276.344 107.909 278.232 112.466 282.008 116.242C285.784 120.018 290.341 121.906 295.68 121.906C298.967 121.906 302.011 121.141 304.811 119.611C307.643 118.081 309.938 116.014 311.695 113.41L314.527 115.461C312.444 118.521 309.742 120.946 306.422 122.736C303.102 124.527 299.521 125.422 295.68 125.422C292.587 125.422 289.625 124.82 286.793 123.615C283.993 122.411 281.568 120.783 279.518 118.732C277.467 116.682 275.839 114.257 274.635 111.457C273.43 108.625 272.828 105.663 272.828 102.57C272.828 99.4779 273.43 96.5319 274.635 93.7324C275.839 90.9004 277.467 88.459 279.518 86.4082C281.568 84.3574 283.993 82.7298 286.793 81.5254C289.625 80.321 292.587 79.7188 295.68 79.7188C299.553 79.7188 303.15 80.6302 306.471 82.4531C309.791 84.2435 312.493 86.6849 314.576 89.7773ZM320.387 85.7734L317.457 87.6777C315.048 84.1621 311.923 81.3789 308.082 79.3281C304.273 77.2448 300.139 76.2031 295.68 76.2031C290.895 76.2031 286.484 77.3913 282.447 79.7676C278.411 82.1113 275.204 85.3014 272.828 89.3379C270.484 93.3743 269.312 97.7852 269.312 102.57C269.312 107.355 270.484 111.766 272.828 115.803C275.204 119.839 278.411 123.046 282.447 125.422C286.484 127.766 290.895 128.938 295.68 128.938C300.139 128.938 304.29 127.896 308.131 125.812C311.972 123.729 315.097 120.913 317.506 117.365L320.387 119.367C317.652 123.404 314.104 126.594 309.742 128.938C305.413 131.281 300.725 132.453 295.68 132.453C290.276 132.453 285.279 131.118 280.689 128.449C276.1 125.78 272.47 122.15 269.801 117.561C267.132 112.971 265.797 107.974 265.797 102.57C265.797 97.1667 267.132 92.1699 269.801 87.5801C272.47 82.9902 276.1 79.3607 280.689 76.6914C285.279 74.0221 290.276 72.6875 295.68 72.6875C300.725 72.6875 305.413 73.8594 309.742 76.2031C314.104 78.5469 317.652 81.737 320.387 85.7734ZM326.246 81.8672L323.316 83.7715C320.257 79.2793 316.285 75.7311 311.402 73.127C306.552 70.4902 301.311 69.1719 295.68 69.1719C291.155 69.1719 286.826 70.0508 282.691 71.8086C278.557 73.5664 274.993 75.9427 271.998 78.9375C269.036 81.8997 266.676 85.4479 264.918 89.582C263.16 93.7161 262.281 98.0456 262.281 102.57C262.281 107.095 263.16 111.424 264.918 115.559C266.676 119.693 269.036 123.257 271.998 126.252C274.993 129.214 278.557 131.574 282.691 133.332C286.826 135.09 291.155 135.969 295.68 135.969C301.344 135.969 306.601 134.65 311.451 132.014C316.301 129.377 320.257 125.812 323.316 121.32L326.148 123.42C322.763 128.368 318.385 132.29 313.014 135.188C307.675 138.052 301.897 139.484 295.68 139.484C289.007 139.484 282.838 137.84 277.174 134.553C271.51 131.232 267.018 126.74 263.697 121.076C260.41 115.412 258.766 109.243 258.766 102.57C258.766 95.8971 260.41 89.7285 263.697 84.0645C267.018 78.4004 271.51 73.9245 277.174 70.6367C282.838 67.3164 289.007 65.6562 295.68 65.6562C301.93 65.6562 307.74 67.1211 313.111 70.0508C318.482 72.9479 322.861 76.8867 326.246 81.8672ZM332.008 77.8633L329.078 79.7676C325.367 74.3314 320.566 70.0345 314.674 66.877C308.814 63.7194 302.483 62.1406 295.68 62.1406C290.211 62.1406 284.97 63.2148 279.957 65.3633C274.977 67.4792 270.68 70.3438 267.066 73.957C263.453 77.5703 260.572 81.8835 258.424 86.8965C256.308 91.877 255.25 97.1016 255.25 102.57C255.25 108.039 256.308 113.28 258.424 118.293C260.572 123.273 263.453 127.57 267.066 131.184C270.68 134.797 274.977 137.678 279.957 139.826C284.97 141.942 290.211 143 295.68 143C302.483 143 308.831 141.405 314.723 138.215C320.615 135.025 325.416 130.712 329.127 125.275L331.959 127.424C327.923 133.283 322.714 137.938 316.334 141.389C309.954 144.807 303.069 146.516 295.68 146.516C289.723 146.516 284.026 145.344 278.59 143C273.186 140.689 268.515 137.58 264.576 133.674C260.67 129.735 257.545 125.064 255.201 119.66C252.89 114.224 251.734 108.527 251.734 102.57C251.734 96.6133 252.89 90.9329 255.201 85.5293C257.545 80.0931 260.67 75.4219 264.576 71.5156C268.515 67.5768 273.186 64.4518 278.59 62.1406C284.026 59.7969 289.723 58.625 295.68 58.625C303.102 58.625 310.003 60.3503 316.383 63.8008C322.763 67.2513 327.971 71.9388 332.008 77.8633ZM375.65 97.9316C372.916 100.666 371.549 103.97 371.549 107.844C371.549 111.717 372.916 115.038 375.65 117.805C378.417 120.539 381.738 121.906 385.611 121.906C389.485 121.906 392.789 120.539 395.523 117.805C398.29 115.038 399.674 111.717 399.674 107.844C399.674 103.97 398.29 100.666 395.523 97.9316C392.789 95.1647 389.485 93.7812 385.611 93.7812C381.738 93.7812 378.417 95.1647 375.65 97.9316ZM373.16 120.295C369.742 116.844 368.033 112.694 368.033 107.844C368.033 102.993 369.742 98.8594 373.16 95.4414C376.611 91.9909 380.761 90.2656 385.611 90.2656C390.462 90.2656 394.596 91.9909 398.014 95.4414C401.464 98.8594 403.189 102.993 403.189 107.844C403.189 112.694 401.464 116.844 398.014 120.295C394.596 123.713 390.462 125.422 385.611 125.422C380.761 125.422 376.611 123.713 373.16 120.295ZM370.67 92.9512C366.568 97.0853 364.518 102.049 364.518 107.844C364.518 113.638 366.568 118.602 370.67 122.736C374.804 126.87 379.785 128.938 385.611 128.938C391.438 128.938 396.402 126.87 400.504 122.736C404.638 118.602 406.705 113.638 406.705 107.844C406.705 102.049 404.638 97.0853 400.504 92.9512C396.402 88.8171 391.438 86.75 385.611 86.75C379.785 86.75 374.804 88.8171 370.67 92.9512ZM364.273 120.197C362.092 116.421 361.002 112.303 361.002 107.844C361.002 103.384 362.092 99.2663 364.273 95.4902C366.487 91.7142 369.482 88.7357 373.258 86.5547C377.034 84.3411 381.152 83.2344 385.611 83.2344C390.071 83.2344 394.189 84.3411 397.965 86.5547C401.741 88.7357 404.719 91.7142 406.9 95.4902C409.114 99.2663 410.221 103.384 410.221 107.844C410.221 112.303 409.114 116.421 406.9 120.197C404.719 123.973 401.741 126.968 397.965 129.182C394.189 131.363 390.071 132.453 385.611 132.453C381.152 132.453 377.034 131.363 373.258 129.182C369.482 126.968 366.487 123.973 364.273 120.197ZM359.684 96.9551C358.219 100.406 357.486 104.035 357.486 107.844C357.486 111.652 358.219 115.298 359.684 118.781C361.181 122.232 363.183 125.227 365.689 127.766C368.229 130.272 371.223 132.274 374.674 133.771C378.157 135.236 381.803 135.969 385.611 135.969C389.42 135.969 393.049 135.236 396.5 133.771C399.983 132.274 402.978 130.272 405.484 127.766C408.023 125.227 410.025 122.232 411.49 118.781C412.988 115.298 413.736 111.652 413.736 107.844C413.736 104.035 412.988 100.406 411.49 96.9551C410.025 93.472 408.023 90.4772 405.484 87.9707C402.978 85.4316 399.983 83.4297 396.5 81.9648C393.049 80.4674 389.42 79.7188 385.611 79.7188C381.803 79.7188 378.157 80.4674 374.674 81.9648C371.223 83.4297 368.229 85.4316 365.689 87.9707C363.183 90.4772 361.181 93.472 359.684 96.9551ZM356.461 120.148C354.801 116.242 353.971 112.141 353.971 107.844C353.971 103.547 354.801 99.4453 356.461 95.5391C358.154 91.6328 360.4 88.2799 363.199 85.4805C366.031 82.6484 369.4 80.4023 373.307 78.7422C377.213 77.0495 381.314 76.2031 385.611 76.2031C389.908 76.2031 394.01 77.0495 397.916 78.7422C401.822 80.4023 405.175 82.6484 407.975 85.4805C410.807 88.2799 413.053 91.6328 414.713 95.5391C416.406 99.4453 417.252 103.547 417.252 107.844C417.252 112.141 416.406 116.242 414.713 120.148C413.053 124.055 410.807 127.424 407.975 130.256C405.175 133.055 401.822 135.301 397.916 136.994C394.01 138.654 389.908 139.484 385.611 139.484C381.314 139.484 377.213 138.654 373.307 136.994C369.4 135.301 366.031 133.055 363.199 130.256C360.4 127.424 358.154 124.055 356.461 120.148ZM353.238 94.2207C351.383 98.5501 350.455 103.091 350.455 107.844C350.455 112.596 351.383 117.154 353.238 121.516C355.094 125.845 357.584 129.589 360.709 132.746C363.867 135.871 367.61 138.361 371.939 140.217C376.301 142.072 380.859 143 385.611 143C390.364 143 394.905 142.072 399.234 140.217C403.596 138.361 407.34 135.871 410.465 132.746C413.622 129.589 416.129 125.845 417.984 121.516C419.84 117.154 420.768 112.596 420.768 107.844C420.768 103.091 419.84 98.5501 417.984 94.2207C416.129 89.8587 413.622 86.1152 410.465 82.9902C407.34 79.8327 403.596 77.3262 399.234 75.4707C394.905 73.6152 390.364 72.6875 385.611 72.6875C380.859 72.6875 376.301 73.6152 371.939 75.4707C367.61 77.3262 363.867 79.8327 360.709 82.9902C357.584 86.1152 355.094 89.8587 353.238 94.2207ZM350.016 122.883C347.965 118.098 346.939 113.085 346.939 107.844C346.939 102.603 347.965 97.6061 350.016 92.8535C352.066 88.0684 354.817 83.9505 358.268 80.5C361.718 77.0495 365.82 74.2988 370.572 72.248C375.357 70.1973 380.37 69.1719 385.611 69.1719C390.852 69.1719 395.849 70.1973 400.602 72.248C405.387 74.2988 409.505 77.0495 412.955 80.5C416.406 83.9505 419.156 88.0684 421.207 92.8535C423.258 97.6061 424.283 102.603 424.283 107.844C424.283 113.085 423.258 118.098 421.207 122.883C419.156 127.635 416.406 131.737 412.955 135.188C409.505 138.638 405.387 141.389 400.602 143.439C395.849 145.49 390.852 146.516 385.611 146.516C380.37 146.516 375.357 145.49 370.572 143.439C365.82 141.389 361.718 138.638 358.268 135.188C354.817 131.737 352.066 127.635 350.016 122.883ZM497.662 114.631L494.146 108.234V72.6875H497.662V114.631ZM504.693 126.789L501.178 120.832V72.6875H504.693V126.789ZM456.256 101.057L459.771 107.453V143H456.256V101.057ZM449.225 88.4102L452.74 94.8555V143H449.225V88.4102ZM450.445 72.6875H454.547L495.27 143H491.168L450.445 72.6875ZM458.746 72.6875H462.896L503.57 143H499.371L458.746 72.6875ZM466.998 72.6875H471.1L508.209 136.896V72.6875H511.725V143H507.574L466.998 72.6875ZM445.709 78.7422V143H442.193V72.6875H446.393L486.969 143H482.916L445.709 78.7422ZM528.121 72.6875H531.93L557.857 138.264L583.785 72.6875H587.545L559.762 143H555.953L528.121 72.6875ZM535.689 72.6875H539.449L560.299 125.422L558.297 129.914L535.689 72.6875ZM543.258 72.6875H547.066L564.059 115.803L562.203 120.637L543.258 72.6875ZM550.826 72.6875H554.586L567.77 106.037L565.914 110.969L550.826 72.6875ZM606.441 72.6875H610.25L582.418 143H578.658L606.441 72.6875ZM598.922 72.6875H602.682L574.85 143H571.09L598.922 72.6875ZM591.305 72.6875H595.113L567.281 143H563.521L591.305 72.6875ZM648.131 97.9316C645.396 100.666 644.029 103.97 644.029 107.844C644.029 111.717 645.396 115.038 648.131 117.805C650.898 120.539 654.218 121.906 658.092 121.906C661.965 121.906 665.27 120.539 668.004 117.805C670.771 115.038 672.154 111.717 672.154 107.844C672.154 103.97 670.771 100.666 668.004 97.9316C665.27 95.1647 661.965 93.7812 658.092 93.7812C654.218 93.7812 650.898 95.1647 648.131 97.9316ZM645.641 120.295C642.223 116.844 640.514 112.694 640.514 107.844C640.514 102.993 642.223 98.8594 645.641 95.4414C649.091 91.9909 653.242 90.2656 658.092 90.2656C662.942 90.2656 667.076 91.9909 670.494 95.4414C673.945 98.8594 675.67 102.993 675.67 107.844C675.67 112.694 673.945 116.844 670.494 120.295C667.076 123.713 662.942 125.422 658.092 125.422C653.242 125.422 649.091 123.713 645.641 120.295ZM643.15 92.9512C639.049 97.0853 636.998 102.049 636.998 107.844C636.998 113.638 639.049 118.602 643.15 122.736C647.285 126.87 652.265 128.938 658.092 128.938C663.919 128.938 668.883 126.87 672.984 122.736C677.118 118.602 679.186 113.638 679.186 107.844C679.186 102.049 677.118 97.0853 672.984 92.9512C668.883 88.8171 663.919 86.75 658.092 86.75C652.265 86.75 647.285 88.8171 643.15 92.9512ZM636.754 120.197C634.573 116.421 633.482 112.303 633.482 107.844C633.482 103.384 634.573 99.2663 636.754 95.4902C638.967 91.7142 641.962 88.7357 645.738 86.5547C649.514 84.3411 653.632 83.2344 658.092 83.2344C662.551 83.2344 666.669 84.3411 670.445 86.5547C674.221 88.7357 677.2 91.7142 679.381 95.4902C681.594 99.2663 682.701 103.384 682.701 107.844C682.701 112.303 681.594 116.421 679.381 120.197C677.2 123.973 674.221 126.968 670.445 129.182C666.669 131.363 662.551 132.453 658.092 132.453C653.632 132.453 649.514 131.363 645.738 129.182C641.962 126.968 638.967 123.973 636.754 120.197ZM632.164 96.9551C630.699 100.406 629.967 104.035 629.967 107.844C629.967 111.652 630.699 115.298 632.164 118.781C633.661 122.232 635.663 125.227 638.17 127.766C640.709 130.272 643.704 132.274 647.154 133.771C650.637 135.236 654.283 135.969 658.092 135.969C661.9 135.969 665.53 135.236 668.98 133.771C672.464 132.274 675.458 130.272 677.965 127.766C680.504 125.227 682.506 122.232 683.971 118.781C685.468 115.298 686.217 111.652 686.217 107.844C686.217 104.035 685.468 100.406 683.971 96.9551C682.506 93.472 680.504 90.4772 677.965 87.9707C675.458 85.4316 672.464 83.4297 668.98 81.9648C665.53 80.4674 661.9 79.7188 658.092 79.7188C654.283 79.7188 650.637 80.4674 647.154 81.9648C643.704 83.4297 640.709 85.4316 638.17 87.9707C635.663 90.4772 633.661 93.472 632.164 96.9551ZM628.941 120.148C627.281 116.242 626.451 112.141 626.451 107.844C626.451 103.547 627.281 99.4453 628.941 95.5391C630.634 91.6328 632.88 88.2799 635.68 85.4805C638.512 82.6484 641.881 80.4023 645.787 78.7422C649.693 77.0495 653.795 76.2031 658.092 76.2031C662.389 76.2031 666.49 77.0495 670.396 78.7422C674.303 80.4023 677.656 82.6484 680.455 85.4805C683.287 88.2799 685.533 91.6328 687.193 95.5391C688.886 99.4453 689.732 103.547 689.732 107.844C689.732 112.141 688.886 116.242 687.193 120.148C685.533 124.055 683.287 127.424 680.455 130.256C677.656 133.055 674.303 135.301 670.396 136.994C666.49 138.654 662.389 139.484 658.092 139.484C653.795 139.484 649.693 138.654 645.787 136.994C641.881 135.301 638.512 133.055 635.68 130.256C632.88 127.424 630.634 124.055 628.941 120.148ZM625.719 94.2207C623.863 98.5501 622.936 103.091 622.936 107.844C622.936 112.596 623.863 117.154 625.719 121.516C627.574 125.845 630.064 129.589 633.189 132.746C636.347 135.871 640.09 138.361 644.42 140.217C648.782 142.072 653.339 143 658.092 143C662.844 143 667.385 142.072 671.715 140.217C676.077 138.361 679.82 135.871 682.945 132.746C686.103 129.589 688.609 125.845 690.465 121.516C692.32 117.154 693.248 112.596 693.248 107.844C693.248 103.091 692.32 98.5501 690.465 94.2207C688.609 89.8587 686.103 86.1152 682.945 82.9902C679.82 79.8327 676.077 77.3262 671.715 75.4707C667.385 73.6152 662.844 72.6875 658.092 72.6875C653.339 72.6875 648.782 73.6152 644.42 75.4707C640.09 77.3262 636.347 79.8327 633.189 82.9902C630.064 86.1152 627.574 89.8587 625.719 94.2207ZM622.496 122.883C620.445 118.098 619.42 113.085 619.42 107.844C619.42 102.603 620.445 97.6061 622.496 92.8535C624.547 88.0684 627.298 83.9505 630.748 80.5C634.199 77.0495 638.3 74.2988 643.053 72.248C647.838 70.1973 652.851 69.1719 658.092 69.1719C663.333 69.1719 668.329 70.1973 673.082 72.248C677.867 74.2988 681.985 77.0495 685.436 80.5C688.886 83.9505 691.637 88.0684 693.688 92.8535C695.738 97.6061 696.764 102.603 696.764 107.844C696.764 113.085 695.738 118.098 693.688 122.883C691.637 127.635 688.886 131.737 685.436 135.188C681.985 138.638 677.867 141.389 673.082 143.439C668.329 145.49 663.333 146.516 658.092 146.516C652.851 146.516 647.838 145.49 643.053 143.439C638.3 141.389 634.199 138.638 630.748 135.188C627.298 131.737 624.547 127.635 622.496 122.883ZM788.551 72.6875L768.971 108.137L788.258 143H784.352L765.064 108.137L784.645 72.6875H788.551ZM780.689 72.6875L761.109 108.137L780.396 143H776.49L757.203 108.137L776.783 72.6875H780.689ZM772.828 72.6875L753.248 108.137L772.535 143H768.629L749.342 108.137L768.922 72.6875H772.828ZM764.967 72.6875L745.338 108.137L764.674 143H760.768L741.432 108.137L761.061 72.6875H764.967ZM735.768 72.6875V143H739.283V72.6875H735.768ZM728.736 72.6875V143H732.252V72.6875H728.736ZM721.705 72.6875V143H725.221V72.6875H721.705ZM714.674 72.6875V143H718.189V72.6875H714.674ZM822.428 143H818.912V72.6875H822.428V143ZM815.396 143H811.881V72.6875H815.396V143ZM808.365 143H804.85V72.6875H808.365V143ZM829.459 125.422H863.102V128.938H829.459V132.453H863.102V135.969H829.459V139.484H863.102V143H825.943V72.6875H863.102V76.2031H829.459V79.7188H863.102V83.2344H829.459V86.75H863.102V90.2656H829.459V99.0059H861.148V102.521H829.459V106.037H861.148V109.553H829.459V113.068H861.148V116.584H829.459V125.422Z" fill="black"/>
</svg>
